<svg width="36" height="36" viewBox="0 0 36 36" fill="none" xmlns="http://www.w3.org/2000/svg">
<path d="M10.125 32.625H5.625C4.3875 32.625 3.375 31.6125 3.375 30.375V19.125C3.375 17.2125 4.8375 15.75 6.75 15.75C8.6625 15.75 10.125 17.2125 10.125 19.125V32.625Z" stroke="white" stroke-width="1.5" stroke-miterlimit="10" stroke-linecap="round" stroke-linejoin="round"/>
<path d="M30.375 32.625H25.875V19.125C25.875 17.2125 27.3375 15.75 29.25 15.75C31.1625 15.75 32.625 17.2125 32.625 19.125V30.375C32.625 31.6125 31.6125 32.625 30.375 32.625Z" stroke="white" stroke-width="1.5" stroke-miterlimit="10" stroke-linecap="round" stroke-linejoin="round"/>
<path d="M25.875 21.375H10.125V32.625H25.875V21.375Z" stroke="white" stroke-width="1.5" stroke-miterlimit="10" stroke-linecap="round" stroke-linejoin="round"/>
<path d="M6.75 15.75V8.775C6.75 6.4125 8.6625 4.5 11.025 4.5H24.8625C27.3375 4.5 29.25 6.4125 29.25 8.775V15.75" stroke="white" stroke-width="1.5" stroke-miterlimit="10" stroke-linecap="round" stroke-linejoin="round"/>
</svg>
